<?xml version="1.0" encoding="UTF-8" ?>
<!DOCTYPE svg PUBLIC "-//W3C//DTD SVG 1.1//EN" "http://www.w3.org/Graphics/SVG/1.1/DTD/svg11.dtd">
<svg width="1251pt" height="1251pt" viewBox="0 0 1251 1251" version="1.1" xmlns="http://www.w3.org/2000/svg">
<g id="#0066c8ff">
<path fill="#0066c8" opacity="1.00" d=" M 311.84 0.00 L 937.98 0.00 C 941.55 2.43 945.96 1.61 950.01 1.65 C 966.99 1.80 984.13 0.23 1000.92 3.57 C 1032.05 3.76 1063.33 8.45 1092.55 19.47 C 1123.11 31.78 1152.43 48.66 1175.25 72.75 C 1205.45 101.08 1227.08 138.21 1237.88 178.12 C 1247.40 205.60 1247.74 234.97 1249.58 263.67 C 1249.87 269.46 1247.86 275.75 1251.00 281.06 L 1251.00 954.26 C 1250.53 953.95 1249.58 953.32 1249.11 953.01 C 1250.42 975.51 1247.86 997.90 1246.02 1020.27 C 1241.65 1051.45 1232.34 1082.25 1216.52 1109.58 C 1197.87 1145.74 1167.74 1175.10 1133.29 1196.27 C 1104.61 1214.43 1071.50 1224.22 1038.31 1230.04 C 1009.95 1232.76 981.50 1235.10 953.00 1234.62 C 735.98 1234.60 518.96 1234.66 301.94 1234.59 C 291.41 1232.55 280.73 1233.83 270.10 1233.50 C 247.04 1231.20 223.45 1230.98 201.16 1223.98 C 164.95 1215.18 130.78 1197.89 102.77 1173.25 C 94.14 1166.96 86.58 1159.34 80.15 1150.83 C 53.51 1121.60 35.60 1085.17 26.46 1046.82 C 19.63 1022.10 20.35 996.28 17.40 971.03 C 18.05 956.98 15.82 943.04 16.37 929.00 C 16.32 719.66 16.44 510.32 16.30 300.98 C 17.40 282.77 17.96 264.55 18.61 246.32 C 21.02 229.99 20.45 213.28 24.43 197.17 C 26.57 184.43 31.51 172.48 35.23 160.18 C 60.33 89.97 120.89 33.41 192.96 13.94 C 214.53 6.64 237.32 3.94 260.00 3.67 C 268.05 3.76 275.89 1.39 283.97 1.42 C 293.24 0.59 302.83 2.93 311.84 0.00 M 343.40 246.44 C 314.99 248.42 288.31 265.56 274.38 290.35 C 262.23 311.46 259.56 337.74 267.13 360.88 C 276.26 389.98 301.74 413.14 331.58 419.44 C 362.00 426.43 395.64 415.70 416.13 392.10 C 439.82 366.13 445.20 325.43 428.85 294.27 C 413.54 262.91 378.16 243.06 343.40 246.44 M 740.16 500.24 C 705.98 513.87 674.73 536.12 653.12 566.16 C 652.47 542.50 653.01 518.82 652.85 495.15 C 605.97 495.19 559.10 495.13 512.23 495.18 C 512.38 660.04 512.35 824.90 512.24 989.76 C 562.07 989.58 611.91 989.61 661.74 989.74 C 661.49 900.51 661.69 811.28 661.64 722.04 C 662.99 695.10 673.46 667.98 692.95 648.96 C 708.03 634.59 728.72 627.70 749.04 625.14 C 779.07 621.42 812.44 629.63 832.89 653.07 C 850.64 673.10 855.83 700.97 854.84 727.00 C 854.76 814.47 854.67 901.94 854.59 989.42 C 904.63 990.04 954.69 989.38 1004.75 989.74 C 1004.45 882.84 1004.75 775.93 1004.60 669.02 C 1004.03 640.69 995.56 613.05 983.30 587.69 C 974.49 568.99 964.03 550.49 948.53 536.48 C 923.42 514.97 894.13 497.25 861.39 490.63 C 821.24 482.23 778.34 484.76 740.16 500.24 M 274.15 495.15 C 274.19 660.02 274.12 824.89 274.19 989.76 C 325.08 989.60 375.98 989.57 426.87 989.77 C 427.14 824.89 426.98 660.00 426.95 495.11 C 376.02 495.23 325.09 495.14 274.15 495.15 Z" />
</g>
<g id="#ffffffff">
<path fill="#ffffff" opacity="1.00" d=" M 343.40 246.44 C 378.16 243.06 413.54 262.91 428.85 294.27 C 445.20 325.43 439.82 366.13 416.13 392.10 C 395.64 415.70 362.00 426.43 331.58 419.44 C 301.74 413.14 276.26 389.98 267.13 360.88 C 259.56 337.74 262.23 311.46 274.38 290.35 C 288.31 265.56 314.99 248.42 343.40 246.44 Z" />
<path fill="#ffffff" opacity="1.00" d=" M 740.16 500.24 C 778.34 484.76 821.24 482.23 861.39 490.63 C 894.13 497.25 923.42 514.97 948.53 536.48 C 964.03 550.49 974.49 568.99 983.30 587.69 C 995.56 613.05 1004.03 640.69 1004.60 669.02 C 1004.75 775.93 1004.45 882.84 1004.75 989.74 C 954.69 989.38 904.63 990.04 854.59 989.42 C 854.67 901.94 854.76 814.47 854.84 727.00 C 855.83 700.97 850.64 673.10 832.89 653.07 C 812.44 629.63 779.07 621.42 749.04 625.14 C 728.72 627.70 708.03 634.59 692.95 648.96 C 673.46 667.98 662.99 695.10 661.64 722.04 C 661.69 811.28 661.49 900.51 661.74 989.74 C 611.91 989.61 562.07 989.58 512.24 989.76 C 512.35 824.90 512.38 660.04 512.23 495.18 C 559.10 495.13 605.97 495.19 652.85 495.15 C 653.01 518.82 652.47 542.50 653.12 566.16 C 674.73 536.12 705.98 513.87 740.16 500.24 Z" />
<path fill="#ffffff" opacity="1.00" d=" M 274.15 495.15 C 325.09 495.14 376.02 495.23 426.95 495.11 C 426.98 660.00 427.14 824.89 426.87 989.77 C 375.98 989.57 325.08 989.60 274.19 989.76 C 274.12 824.89 274.19 660.02 274.15 495.15 Z" />
</g>
</svg>
