<?xml version="1.0" encoding="UTF-8" ?>
<!DOCTYPE svg PUBLIC "-//W3C//DTD SVG 1.1//EN" "http://www.w3.org/Graphics/SVG/1.1/DTD/svg11.dtd">
<svg width="1216pt" height="1216pt" viewBox="0 0 1216 1216" version="1.1" xmlns="http://www.w3.org/2000/svg">
<g id="#311b92ff">
<path fill="#311b92" opacity="1.00" d=" M 563.40 0.00 L 651.65 0.00 C 654.91 0.88 658.13 1.96 661.50 2.42 C 764.55 11.07 865.04 47.25 950.32 105.68 C 1042.59 168.61 1117.00 257.41 1162.57 359.40 C 1190.47 421.68 1207.77 488.71 1213.25 556.74 C 1213.45 563.40 1214.26 570.02 1216.00 576.46 L 1216.00 630.16 C 1215.41 633.82 1214.70 637.48 1214.41 641.20 C 1210.62 713.26 1193.69 784.61 1164.74 850.71 C 1120.64 951.90 1048.23 1040.46 958.01 1104.02 C 870.41 1166.15 765.97 1204.24 658.92 1212.91 C 653.10 1213.28 647.28 1213.77 641.53 1214.69 C 645.54 1215.42 649.61 1215.84 653.70 1216.00 L 568.30 1216.00 C 570.04 1215.58 571.77 1215.09 573.50 1214.60 C 563.43 1213.16 553.24 1212.89 543.14 1211.68 C 429.27 1199.86 319.10 1154.75 229.57 1083.42 C 183.33 1046.52 142.35 1002.99 108.57 954.42 C 52.35 873.79 16.10 779.30 4.47 681.67 C 4.08 675.29 3.61 668.75 0.00 663.23 L 0.00 548.76 C 1.82 546.09 3.69 543.26 3.87 539.92 C 20.07 383.47 101.55 235.53 223.65 136.65 C 316.63 60.44 432.78 12.77 552.61 2.54 C 556.30 2.12 559.83 0.96 563.40 0.00 M 577.39 36.39 C 511.71 39.64 446.67 54.61 386.05 80.06 C 273.14 127.29 176.48 211.97 114.50 317.46 C 43.26 437.31 18.96 583.77 46.70 720.33 C 60.63 790.76 88.29 858.40 127.38 918.61 C 191.99 1018.53 288.48 1097.49 399.42 1140.60 C 535.25 1194.13 691.68 1192.62 826.43 1136.40 C 943.94 1088.02 1044.08 999.10 1106.31 888.32 C 1176.36 765.28 1197.25 615.74 1165.04 478.00 C 1149.50 410.70 1121.45 346.36 1082.94 289.03 C 1016.48 189.78 918.27 112.12 806.11 70.92 C 733.30 43.91 654.92 32.20 577.39 36.39 Z" />
<path fill="#311b92" opacity="1.00" d=" M 531.55 313.50 C 605.32 294.26 686.28 304.06 753.09 340.88 C 814.99 374.46 864.18 430.28 890.25 495.65 C 904.50 495.86 918.77 495.21 933.00 495.91 C 949.55 497.33 963.48 512.38 963.68 528.98 C 963.76 577.65 963.66 626.32 963.72 675.00 C 963.73 682.75 964.37 690.88 961.15 698.16 C 956.25 710.38 943.94 719.18 930.74 719.57 C 917.19 719.94 903.64 719.35 890.10 719.81 C 856.37 805.51 781.74 873.79 693.15 899.19 C 623.44 919.75 546.37 914.22 480.45 883.53 C 413.64 852.86 358.77 797.04 329.47 729.61 C 328.01 726.37 327.09 722.75 324.67 720.07 C 310.60 718.81 296.37 720.38 282.26 719.43 C 265.69 717.82 251.72 702.74 251.68 686.03 C 251.58 634.02 251.66 581.99 251.64 529.98 C 251.34 512.82 265.84 496.98 282.97 495.83 C 296.24 495.16 309.56 496.06 322.84 495.54 C 326.11 495.82 326.57 491.98 327.78 489.76 C 363.31 403.54 441.15 336.32 531.55 313.50 M 491.89 342.85 C 488.40 344.11 487.04 347.75 485.93 350.96 C 476.78 376.87 467.68 402.93 461.70 429.78 C 507.65 424.80 553.84 421.80 600.07 421.71 C 600.52 387.46 600.30 353.19 600.18 318.93 C 562.98 319.60 525.99 328.03 491.89 342.85 M 615.07 318.95 C 615.11 353.20 614.97 387.46 615.15 421.72 C 661.54 421.77 707.85 425.04 753.97 429.83 C 746.98 402.02 738.19 374.68 728.17 347.83 C 726.74 343.16 721.53 342.06 717.60 340.35 C 685.09 327.13 650.19 319.58 615.07 318.95 M 370.64 443.12 C 395.57 439.19 420.45 434.83 445.50 431.65 C 452.10 405.47 459.90 379.60 469.01 354.18 C 430.02 375.68 395.37 405.98 370.64 443.12 M 746.87 354.81 C 755.37 380.27 763.33 405.92 770.11 431.90 C 795.27 435.15 820.33 439.12 845.30 443.63 C 820.19 406.85 786.23 375.73 746.87 354.81 M 457.51 445.41 C 453.83 462.05 450.02 478.72 447.91 495.65 C 498.62 495.67 549.33 495.55 600.05 495.71 C 600.53 476.06 600.31 456.39 600.16 436.74 C 552.50 436.47 504.82 439.78 457.51 445.41 M 615.09 436.76 C 615.09 456.41 614.96 476.06 615.17 495.72 C 665.99 495.35 716.83 496.04 767.64 495.38 C 764.96 478.59 761.76 461.88 757.74 445.37 C 710.41 439.93 662.75 436.48 615.09 436.76 M 366.38 459.31 C 362.95 460.01 358.68 460.37 356.94 463.94 C 351.06 474.21 345.91 484.90 341.19 495.76 C 371.67 495.48 402.16 495.71 432.64 495.64 C 434.87 479.50 438.58 463.63 441.46 447.61 C 416.25 450.16 391.33 454.98 366.38 459.31 M 773.81 447.72 C 776.91 463.63 780.45 479.47 782.65 495.54 C 813.09 495.77 843.53 495.56 873.97 495.65 C 869.48 484.65 864.16 473.99 858.24 463.70 C 856.59 460.43 852.61 460.17 849.45 459.48 C 824.32 455.10 799.19 450.39 773.81 447.72 M 283.44 510.70 C 274.14 511.91 266.42 520.50 266.61 529.96 C 266.57 581.65 266.59 633.35 266.60 685.04 C 266.28 695.46 275.50 704.92 285.96 704.71 C 496.30 704.71 706.66 704.70 917.00 704.71 C 922.72 704.62 928.53 705.26 934.17 704.06 C 942.99 701.90 949.29 693.08 948.84 684.06 C 948.77 632.70 948.88 581.32 948.79 529.96 C 948.96 519.39 939.42 510.27 928.95 510.44 C 718.97 510.37 508.98 510.43 299.00 510.40 C 293.81 510.43 288.60 510.05 283.44 510.70 M 341.66 719.87 C 345.73 730.74 351.25 740.99 356.82 751.14 C 358.17 754.20 361.48 755.12 364.51 755.60 C 390.24 760.20 415.98 764.95 441.97 767.95 C 438.78 751.95 435.39 735.99 432.91 719.86 C 402.50 719.53 372.07 719.51 341.66 719.87 M 448.03 719.85 C 450.75 736.66 453.81 753.46 458.07 769.96 C 505.18 775.70 552.65 778.47 600.10 778.75 C 600.47 759.11 600.35 739.45 600.16 719.81 C 549.45 719.59 498.73 719.50 448.03 719.85 M 615.09 719.81 C 615.08 739.45 614.98 759.11 615.14 778.76 C 662.73 778.42 710.33 775.58 757.56 769.77 C 761.21 753.22 764.88 736.65 767.22 719.86 C 716.52 719.49 665.80 719.60 615.09 719.81 M 782.77 719.68 C 779.56 735.75 776.89 751.93 773.26 767.92 C 798.25 764.63 823.13 760.57 847.92 756.04 C 851.62 755.22 856.44 755.27 858.38 751.36 C 864.19 741.18 869.40 730.64 873.93 719.82 C 843.55 719.46 813.15 719.74 782.77 719.68 M 370.13 771.95 C 395.54 808.77 429.64 839.74 469.05 860.98 C 460.45 835.39 452.30 809.64 445.74 783.44 C 420.39 780.59 395.29 776.02 370.13 771.95 M 769.47 783.53 C 763.36 809.58 754.69 834.91 746.78 860.43 C 786.12 839.70 820.00 808.57 845.07 771.91 C 819.91 776.01 794.74 780.11 769.47 783.53 M 461.88 785.75 C 468.21 811.75 476.58 837.20 485.57 862.39 C 487.01 866.22 488.03 871.09 492.38 872.64 C 526.35 887.29 563.14 895.64 600.16 896.29 C 600.39 862.13 600.38 827.97 600.16 793.81 C 553.97 793.29 507.83 790.35 461.88 785.75 M 615.09 793.81 C 615.05 827.96 615.06 862.12 615.09 896.27 C 652.06 895.71 688.79 887.32 722.74 872.77 C 725.95 871.70 727.78 868.76 728.71 865.67 C 737.95 839.34 747.06 812.87 753.37 785.66 C 707.41 790.26 661.29 793.26 615.09 793.81 Z" />
<path fill="#311b92" opacity="1.00" d=" M 407.54 570.82 C 412.58 570.45 417.65 570.60 422.70 570.95 C 426.17 587.40 429.72 603.84 433.54 620.22 C 438.83 603.99 442.43 587.26 447.11 570.85 C 453.05 570.51 459.01 570.50 464.96 570.82 C 469.32 587.90 473.65 604.99 477.76 622.13 C 481.87 605.11 485.36 587.94 489.15 570.85 C 494.14 570.58 499.14 570.54 504.14 570.82 C 498.54 595.46 492.22 619.93 486.45 644.52 C 481.10 644.71 475.74 644.75 470.39 644.63 C 465.47 626.39 461.04 608.01 455.59 589.92 C 450.66 608.17 446.18 626.55 440.88 644.70 C 435.61 644.68 430.34 644.69 425.07 644.72 C 418.94 620.16 412.83 595.57 407.54 570.82 Z" />
<path fill="#311b92" opacity="1.00" d=" M 559.16 570.78 C 564.58 571.47 574.78 567.33 575.60 575.41 C 578.88 590.36 581.70 605.44 585.65 620.23 C 590.57 603.89 594.42 587.25 599.07 570.83 C 605.01 570.51 610.97 570.51 616.91 570.84 C 621.22 587.59 625.25 604.41 629.65 621.13 C 634.24 604.56 637.15 587.58 641.11 570.85 C 646.09 570.58 651.08 570.53 656.07 570.83 C 650.46 595.45 644.10 619.90 638.40 644.51 C 633.05 644.71 627.69 644.76 622.33 644.62 C 617.36 626.41 612.98 608.03 607.53 589.96 C 602.57 608.18 598.06 626.53 592.85 644.69 C 587.44 644.76 582.04 644.69 576.64 644.51 C 570.98 619.89 564.92 595.37 559.16 570.78 Z" />
<path fill="#311b92" opacity="1.00" d=" M 711.10 570.83 C 716.26 570.43 721.44 570.58 726.59 571.00 C 730.11 587.46 733.31 604.01 737.60 620.28 C 742.41 603.87 746.35 587.22 751.00 570.76 C 756.95 570.50 762.92 570.54 768.88 570.85 C 773.17 587.61 777.16 604.45 781.58 621.18 C 786.13 604.56 789.06 587.54 793.05 570.78 C 798.03 570.59 803.02 570.57 808.01 570.78 C 802.17 595.47 796.36 620.18 789.94 644.72 C 784.72 644.70 779.50 644.69 774.29 644.64 C 769.28 626.44 764.88 608.06 759.49 589.96 C 754.49 608.18 749.90 626.50 744.83 644.69 C 739.41 644.75 733.99 644.70 728.58 644.51 C 722.86 619.93 716.85 595.41 711.10 570.83 Z" />
</g>
<g id="#d1c4e9ff">
<path fill="#d1c4e9" opacity="1.00" d=" M 577.39 36.39 C 654.92 32.20 733.30 43.91 806.11 70.92 C 918.27 112.12 1016.48 189.78 1082.94 289.03 C 1121.45 346.36 1149.50 410.70 1165.04 478.00 C 1197.25 615.74 1176.36 765.28 1106.31 888.32 C 1044.08 999.10 943.94 1088.02 826.43 1136.40 C 691.68 1192.62 535.25 1194.13 399.42 1140.60 C 288.48 1097.49 191.99 1018.53 127.38 918.61 C 88.29 858.40 60.63 790.76 46.70 720.33 C 18.96 583.77 43.26 437.31 114.50 317.46 C 176.48 211.97 273.14 127.29 386.05 80.06 C 446.67 54.61 511.71 39.64 577.39 36.39 M 531.55 313.50 C 441.15 336.32 363.31 403.54 327.78 489.76 C 326.57 491.98 326.11 495.82 322.84 495.54 C 309.56 496.06 296.24 495.16 282.97 495.83 C 265.84 496.98 251.34 512.82 251.64 529.98 C 251.66 581.99 251.58 634.02 251.68 686.03 C 251.72 702.74 265.69 717.82 282.26 719.43 C 296.37 720.38 310.60 718.81 324.67 720.07 C 327.09 722.75 328.01 726.37 329.47 729.61 C 358.77 797.04 413.64 852.86 480.45 883.53 C 546.37 914.22 623.44 919.75 693.15 899.19 C 781.74 873.79 856.37 805.51 890.10 719.81 C 903.64 719.35 917.19 719.94 930.74 719.57 C 943.94 719.18 956.25 710.38 961.15 698.16 C 964.37 690.88 963.73 682.75 963.72 675.00 C 963.66 626.32 963.76 577.65 963.68 528.98 C 963.48 512.38 949.55 497.33 933.00 495.91 C 918.77 495.21 904.50 495.86 890.25 495.65 C 864.18 430.28 814.99 374.46 753.09 340.88 C 686.28 304.06 605.32 294.26 531.55 313.50 Z" />
<path fill="#d1c4e9" opacity="1.00" d=" M 491.89 342.85 C 525.99 328.03 562.98 319.60 600.18 318.93 C 600.30 353.19 600.52 387.46 600.07 421.71 C 553.84 421.80 507.65 424.80 461.70 429.78 C 467.68 402.93 476.78 376.87 485.93 350.96 C 487.04 347.75 488.40 344.11 491.89 342.85 Z" />
<path fill="#d1c4e9" opacity="1.00" d=" M 615.07 318.95 C 650.19 319.58 685.09 327.13 717.60 340.35 C 721.53 342.06 726.74 343.16 728.17 347.83 C 738.19 374.68 746.98 402.02 753.97 429.83 C 707.85 425.04 661.54 421.77 615.15 421.72 C 614.97 387.46 615.11 353.20 615.07 318.95 Z" />
<path fill="#d1c4e9" opacity="1.00" d=" M 370.64 443.12 C 395.37 405.98 430.02 375.68 469.01 354.18 C 459.90 379.60 452.10 405.47 445.50 431.65 C 420.45 434.83 395.57 439.19 370.64 443.12 Z" />
<path fill="#d1c4e9" opacity="1.00" d=" M 746.87 354.81 C 786.23 375.73 820.19 406.85 845.30 443.63 C 820.33 439.12 795.27 435.15 770.11 431.90 C 763.33 405.92 755.37 380.27 746.87 354.81 Z" />
<path fill="#d1c4e9" opacity="1.00" d=" M 457.51 445.41 C 504.82 439.78 552.50 436.47 600.16 436.74 C 600.31 456.39 600.53 476.06 600.05 495.71 C 549.33 495.55 498.62 495.67 447.91 495.65 C 450.02 478.72 453.83 462.05 457.51 445.41 Z" />
<path fill="#d1c4e9" opacity="1.00" d=" M 615.09 436.76 C 662.75 436.48 710.41 439.93 757.74 445.37 C 761.76 461.88 764.96 478.59 767.64 495.38 C 716.83 496.04 665.99 495.35 615.17 495.72 C 614.96 476.06 615.09 456.41 615.09 436.76 Z" />
<path fill="#d1c4e9" opacity="1.00" d=" M 366.38 459.31 C 391.33 454.98 416.25 450.16 441.46 447.61 C 438.58 463.63 434.87 479.50 432.64 495.64 C 402.16 495.71 371.67 495.48 341.19 495.76 C 345.91 484.90 351.06 474.21 356.94 463.94 C 358.68 460.37 362.95 460.01 366.38 459.31 Z" />
<path fill="#d1c4e9" opacity="1.00" d=" M 773.81 447.72 C 799.19 450.39 824.32 455.10 849.45 459.48 C 852.61 460.17 856.59 460.43 858.24 463.70 C 864.16 473.99 869.48 484.65 873.97 495.65 C 843.53 495.56 813.09 495.77 782.65 495.54 C 780.45 479.47 776.91 463.63 773.81 447.72 Z" />
<path fill="#d1c4e9" opacity="1.00" d=" M 283.44 510.70 C 288.60 510.05 293.81 510.43 299.00 510.40 C 508.98 510.43 718.97 510.37 928.95 510.44 C 939.42 510.27 948.96 519.39 948.79 529.96 C 948.88 581.32 948.77 632.70 948.84 684.06 C 949.29 693.08 942.99 701.90 934.17 704.06 C 928.53 705.26 922.72 704.62 917.00 704.71 C 706.66 704.70 496.30 704.71 285.96 704.71 C 275.50 704.92 266.28 695.46 266.60 685.04 C 266.59 633.35 266.57 581.65 266.61 529.96 C 266.42 520.50 274.14 511.91 283.44 510.70 M 407.54 570.82 C 412.83 595.57 418.94 620.16 425.07 644.72 C 430.34 644.69 435.61 644.68 440.88 644.70 C 446.18 626.55 450.66 608.17 455.59 589.92 C 461.04 608.01 465.47 626.39 470.39 644.63 C 475.74 644.75 481.10 644.71 486.45 644.52 C 492.22 619.93 498.54 595.46 504.14 570.82 C 499.14 570.54 494.14 570.58 489.15 570.85 C 485.36 587.94 481.87 605.11 477.76 622.13 C 473.65 604.99 469.32 587.90 464.96 570.82 C 459.01 570.50 453.05 570.51 447.11 570.85 C 442.43 587.26 438.83 603.99 433.54 620.22 C 429.72 603.84 426.17 587.40 422.70 570.95 C 417.65 570.60 412.58 570.45 407.54 570.82 M 559.16 570.78 C 564.92 595.37 570.98 619.89 576.64 644.51 C 582.04 644.69 587.44 644.76 592.85 644.69 C 598.06 626.53 602.57 608.18 607.53 589.96 C 612.98 608.03 617.36 626.41 622.33 644.62 C 627.69 644.76 633.05 644.71 638.40 644.51 C 644.10 619.90 650.46 595.45 656.07 570.83 C 651.08 570.53 646.09 570.58 641.11 570.85 C 637.15 587.58 634.24 604.56 629.65 621.13 C 625.25 604.41 621.22 587.59 616.91 570.84 C 610.97 570.51 605.01 570.51 599.07 570.83 C 594.42 587.25 590.57 603.89 585.65 620.23 C 581.70 605.44 578.88 590.36 575.60 575.41 C 574.78 567.33 564.58 571.47 559.16 570.78 M 711.10 570.83 C 716.85 595.41 722.86 619.93 728.58 644.51 C 733.99 644.70 739.41 644.75 744.83 644.69 C 749.90 626.50 754.49 608.18 759.49 589.96 C 764.88 608.06 769.28 626.44 774.29 644.64 C 779.50 644.69 784.72 644.70 789.94 644.72 C 796.36 620.18 802.17 595.47 808.01 570.78 C 803.02 570.57 798.03 570.59 793.05 570.78 C 789.06 587.54 786.13 604.56 781.58 621.18 C 777.16 604.45 773.17 587.61 768.88 570.85 C 762.92 570.54 756.95 570.50 751.00 570.76 C 746.35 587.22 742.41 603.87 737.60 620.28 C 733.31 604.01 730.11 587.46 726.59 571.00 C 721.44 570.58 716.26 570.43 711.10 570.83 Z" />
<path fill="#d1c4e9" opacity="1.00" d=" M 341.66 719.87 C 372.07 719.51 402.50 719.53 432.91 719.86 C 435.39 735.99 438.78 751.95 441.97 767.95 C 415.98 764.95 390.24 760.20 364.51 755.60 C 361.48 755.12 358.17 754.20 356.82 751.14 C 351.25 740.99 345.73 730.74 341.66 719.87 Z" />
<path fill="#d1c4e9" opacity="1.00" d=" M 448.03 719.85 C 498.73 719.50 549.45 719.59 600.16 719.81 C 600.35 739.45 600.47 759.11 600.10 778.75 C 552.65 778.47 505.18 775.70 458.07 769.96 C 453.81 753.46 450.75 736.66 448.03 719.85 Z" />
<path fill="#d1c4e9" opacity="1.00" d=" M 615.09 719.81 C 665.80 719.60 716.52 719.49 767.22 719.86 C 764.88 736.65 761.21 753.22 757.56 769.77 C 710.33 775.58 662.73 778.42 615.14 778.76 C 614.98 759.11 615.08 739.45 615.09 719.81 Z" />
<path fill="#d1c4e9" opacity="1.00" d=" M 782.77 719.68 C 813.15 719.74 843.55 719.46 873.93 719.82 C 869.40 730.64 864.19 741.18 858.38 751.36 C 856.44 755.27 851.62 755.22 847.92 756.04 C 823.13 760.57 798.25 764.63 773.26 767.92 C 776.89 751.93 779.56 735.75 782.77 719.68 Z" />
<path fill="#d1c4e9" opacity="1.00" d=" M 370.13 771.95 C 395.29 776.02 420.39 780.59 445.74 783.44 C 452.30 809.64 460.45 835.39 469.05 860.98 C 429.64 839.74 395.54 808.77 370.13 771.95 Z" />
<path fill="#d1c4e9" opacity="1.00" d=" M 769.47 783.53 C 794.74 780.11 819.91 776.01 845.07 771.91 C 820.00 808.57 786.12 839.70 746.78 860.43 C 754.69 834.91 763.36 809.58 769.47 783.53 Z" />
<path fill="#d1c4e9" opacity="1.00" d=" M 461.88 785.75 C 507.83 790.35 553.97 793.29 600.16 793.81 C 600.38 827.97 600.39 862.13 600.16 896.29 C 563.14 895.64 526.35 887.29 492.38 872.64 C 488.03 871.09 487.01 866.22 485.57 862.39 C 476.58 837.20 468.21 811.75 461.88 785.75 Z" />
<path fill="#d1c4e9" opacity="1.00" d=" M 615.09 793.81 C 661.29 793.26 707.41 790.26 753.37 785.66 C 747.06 812.87 737.95 839.34 728.71 865.67 C 727.78 868.76 725.95 871.70 722.74 872.77 C 688.79 887.32 652.06 895.71 615.09 896.27 C 615.06 862.12 615.05 827.96 615.09 793.81 Z" />
</g>
</svg>
