<svg xmlns="http://www.w3.org/2000/svg" xmlns:xlink="http://www.w3.org/1999/xlink" version="1.1" width="1080" height="1080" viewBox="0 0 1080 1080" xml:space="preserve">
<g transform="matrix(1 0 0 1 540 540)" id="764bde53-2c55-4eae-aa98-346f8d9879b1"  >
<rect style="stroke: none; stroke-width: 1; stroke-dasharray: none; stroke-linecap: butt; stroke-dashoffset: 0; stroke-linejoin: miter; stroke-miterlimit: 4; fill: rgb(255,255,255); fill-rule: nonzero; opacity: 1; visibility: hidden;" vector-effect="non-scaling-stroke"  x="-540" y="-540" rx="0" ry="0" width="1080" height="1080" />
</g>
<g transform="matrix(1 0 0 1 540 540)" id="b79e125a-d837-4099-a0d5-a8693045857c"  >
</g>
<g transform="matrix(27.92 0 0 27.92 540 540)"  >
<g style="" vector-effect="non-scaling-stroke"   >
		<g transform="matrix(1 0 0 1 -0.7 12)"  >
<polygon style="stroke: none; stroke-width: 1; stroke-dasharray: none; stroke-linecap: butt; stroke-dashoffset: 0; stroke-linejoin: miter; stroke-miterlimit: 4; fill: rgb(188,187,187); fill-rule: nonzero; opacity: 1;" vector-effect="non-scaling-stroke"  points="11,2.5 11,-6.5 15,-6.5 15,6.5 -15,6.5 -15,-6.5 -11,-6.5 -11,2.5 " />
</g>
		<g transform="matrix(1 0 0 1 3.5 -3.5)"  >
<path style="stroke: none; stroke-width: 1; stroke-dasharray: none; stroke-linecap: butt; stroke-dashoffset: 0; stroke-linejoin: miter; stroke-miterlimit: 4; fill: rgb(244,128,36); fill-rule: nonzero; opacity: 1;" vector-effect="non-scaling-stroke"  transform=" translate(-229.2, -15)" d="M 233.09082 25.9902344 L 233.784424 23.0410156 L 217.679932 19.6870117 L 217 23 L 233.09082 25.9902344 Z M 219.1 15.2 L 234.1 22.2 L 235.5 19.2 L 220.5 12.2 L 219.1 15.2 Z M 223.3 7.8 L 236 18.4 L 238.1 15.9 L 225.4 5.3 L 223.3 7.8 L 223.3 7.8 Z M 231.5 0 L 228.8 2 L 238.7 15.3 L 241.4 13.3 L 231.5 0 Z M 217 30 L 233 30 L 233 27 L 217 27 L 217 30 Z" stroke-linecap="round" />
</g>
</g>
</g>
</svg>